<?xml version="1.0" encoding="UTF-8" standalone="no"?>
<svg
   xmlns:dc="http://purl.org/dc/elements/1.1/"
   xmlns:cc="http://creativecommons.org/ns#"
   xmlns:rdf="http://www.w3.org/1999/02/22-rdf-syntax-ns#"
   xmlns:svg="http://www.w3.org/2000/svg"
   xmlns="http://www.w3.org/2000/svg"
   viewBox="0 0 1066.6667 210.66667"
   height="210.66667"
   width="1066.6667"
   xml:space="preserve"
   id="svg2"
   version="1.1"><metadata
     id="metadata8"><rdf:RDF><cc:Work
         rdf:about=""><dc:format>image/svg+xml</dc:format><dc:type
           rdf:resource="http://purl.org/dc/dcmitype/StillImage" /></cc:Work></rdf:RDF></metadata><defs
     id="defs6" /><g
     transform="matrix(1.3333333,0,0,-1.3333333,0,210.66667)"
     id="g10"><g
       transform="scale(0.1)"
       id="g12"><path
         id="path14"
         style="fill:#263f81;fill-opacity:1;fill-rule:evenodd;stroke:none"
         d="m 288.809,249.211 h 630.55 c 205.161,0 363.701,37.91 475.611,113.719 C 1261,173.148 1039.98,49.2109 790,49.2109 381.301,49.2109 50,380.512 50,789.199 c 0,215.361 91.988,409.221 238.809,544.451 z m 607.293,932.879 c 170.538,0 293.728,-27.57 369.508,-82.69 82.7,-58.59 124.05,-157.65 124.05,-297.201 0,-144.711 -39.62,-245.5 -118.88,-302.359 -77.53,-56.82 -202.41,-85.25 -374.678,-85.25 H 495.551 v 767.5 z M 301.301,1344.9 c 130.347,114.72 301.398,184.3 488.699,184.3 231.64,0 438.41,-106.42 574.1,-273.04 -1.79,1.16 -3.6,2.31 -5.42,3.46 -89.59,56.85 -236.05,85.28 -439.321,85.28 H 301.301" /><path
         id="path16"
         style="fill:#263f81;fill-opacity:1;fill-rule:nonzero;stroke:none"
         d="M 2092.97,1206.34 H 1923.54 V 880.621 h 169.43 c 72.85,0 125.86,12.039 159.05,36.168 33.14,24.109 49.72,66.91 49.72,128.321 0,59.24 -17.49,101.27 -52.45,126.12 -32.08,23.41 -84.18,35.11 -156.32,35.11 m 9.84,68.87 c 85.96,0 147.91,-12.04 185.82,-36.08 67.02,-42.26 100.55,-107.13 100.55,-194.55 0,-155.228 -95.48,-232.83 -286.37,-232.83 H 1836.1 v 463.46 h 266.71" /><path
         id="path18"
         style="fill:#263f81;fill-opacity:1;fill-rule:nonzero;stroke:none"
         d="m 2575.1,811.738 v 463.472 h 466.73 v -68.87 h -379.28 v -119.15 h 228.46 v -68.85 H 2662.55 V 879.531 h 383.66 V 811.738 H 2575.1" /><path
         id="path20"
         style="fill:#263f81;fill-opacity:1;fill-rule:nonzero;stroke:none"
         d="m 3284.48,1182.3 c 4.38,-26.98 6.56,-54.66 6.56,-83.09 V 811.738 h -80.87 v 463.472 h 66.67 l 339.94,-302.788 c 21.12,-18.953 39.69,-40.07 55.74,-63.41 -5.12,27.699 -7.67,56.476 -7.67,86.379 v 279.819 h 80.9 V 811.738 h -60.12 l -346.5,307.152 c -23.32,20.4 -41.54,41.55 -54.65,63.41" /><path
         id="path22"
         style="fill:#263f81;fill-opacity:1;fill-rule:nonzero;stroke:none"
         d="m 3959.98,811.738 v 463.472 h 87.45 v -198.93 l 292.92,198.93 H 4461.7 L 4119.56,1051.13 4499.94,811.738 H 4356.75 L 4047.43,1019.43 V 811.738 h -87.45" /><path
         id="path24"
         style="fill:#263f81;fill-opacity:1;fill-rule:nonzero;stroke:none"
         d="M 4707.61,1020.51 V 880.609 h 268.89 c 19.66,0 33.33,3.789 40.99,11.391 7.65,7.57 11.47,21.121 11.47,40.672 v 35.777 c 0,34.711 -17.47,52.061 -52.46,52.061 z m 318.1,105.34 v 42.91 c 0,25.06 -16.42,37.57 -49.21,37.57 H 4707.61 V 1089.4 h 268.89 c 18.23,0 30.99,2.29 38.26,6.95 7.3,4.65 10.95,14.47 10.95,29.5 M 4620.17,811.73 v 463.47 h 391.32 c 67.77,0 101.65,-30.18 101.65,-90.5 v -53.48 c 0,-46.54 -26.96,-73.06 -80.87,-79.59 56.09,-5.84 84.15,-35.78 84.15,-89.829 v -59.153 c 0,-60.617 -44.83,-90.918 -134.45,-90.918 h -361.8" /><path
         id="path26"
         style="fill:#263f81;fill-opacity:1;fill-rule:nonzero;stroke:none"
         d="m 5419.17,986.629 h 245.94 l -123.5,220.791 z M 5235.53,811.738 5503.35,1275.2 h 79.78 l 274.38,-463.462 h -95.13 l -60.1,108.223 H 5382.03 L 5323,811.738 h -87.47" /><path
         id="path28"
         style="fill:#263f81;fill-opacity:1;fill-rule:nonzero;stroke:none"
         d="m 6330.78,1206.34 h -247.03 v -148.65 h 247.03 c 23.32,0 37.88,5.39 43.72,16.28 3.66,6.48 5.46,16.62 5.46,30.38 v 55.32 c 0,31.11 -16.39,46.67 -49.18,46.67 M 5996.33,811.75 v 463.46 h 373.58 c 65.01,0 97.48,-29.9 97.48,-89.64 v -103.85 c 0,-59.03 -32.49,-88.529 -97.52,-88.529 h -61.33 L 6512.94,811.75 H 6395.97 L 6210.96,993.191 H 6083.75 V 811.75 h -87.42" /><path
         id="path30"
         style="fill:#b6b5b5;fill-opacity:1;fill-rule:nonzero;stroke:none"
         d="m 6666.5,811.738 v 463.472 h 466.73 v -68.87 h -379.31 v -119.15 h 228.48 v -68.85 H 6753.92 V 879.531 h 383.69 V 811.738 H 6666.5" /><path
         id="path32"
         style="fill:#b6b5b5;fill-opacity:1;fill-rule:nonzero;stroke:none"
         d="m 7710.36,1206.34 h -324.65 v -119.15 h 297.3 c 43.75,0 73.41,-7.69 89.11,-23.07 15.66,-15.35 23.49,-44.25 23.49,-86.679 v -55.972 c 0,-42.43 -7.83,-71.297 -23.49,-86.68 -15.7,-15.379 -45.36,-23.039 -89.11,-23.039 h -281.97 c -44.47,0 -74.52,7.52 -90.18,22.602 -15.7,15.046 -23.53,43.578 -23.53,85.609 v 13.109 l 79.8,16.399 v -68.848 h 349.79 V 1011.79 H 7418.5 c -43.7,0 -73.39,7.64 -89.07,22.95 -15.67,15.3 -23.5,44.07 -23.5,86.33 v 43.72 c 0,43.01 7.83,72.14 23.5,87.45 15.68,15.33 45.37,22.97 89.07,22.97 h 257.96 c 41.54,0 70.89,-7.29 88,-21.88 17.11,-14.59 25.68,-41.18 25.68,-79.78 v -10.93 l -79.78,-17.51 v 61.23" /><path
         id="path34"
         style="fill:#a7a5a6;fill-opacity:1;fill-rule:nonzero;stroke:none"
         d="m 2114.02,310.34 h -81.33 c -15.66,24.238 -33.09,48.281 -52.29,72.129 -19.08,23.953 -39.09,47.179 -60.07,69.691 H 1915 V 351.211 c 0,-4.492 0.81,-8.52 2.45,-12.063 1.76,-3.519 4.91,-6.398 9.41,-8.57 2.17,-0.949 6.2,-2.129 12.06,-3.476 5.98,-1.364 10.96,-2.102 14.92,-2.243 V 310.34 h -120.36 v 14.519 c 3.13,0.27 7.69,0.672 13.69,1.219 6,0.543 10.21,1.352 12.67,2.461 4.1,1.762 7.01,4.352 8.77,7.762 1.93,3.519 2.88,7.758 2.88,12.66 v 209.238 c 0,4.61 -0.81,8.641 -2.46,12.063 -1.48,3.386 -4.56,6.16 -9.19,8.359 -3.69,1.758 -8.04,3.32 -13.06,4.707 -5.05,1.363 -9.48,2.172 -13.3,2.453 v 14.5 h 120.36 v -14.5 c -3.83,-0.14 -8.6,-0.761 -14.32,-1.851 -5.72,-1.071 -9.93,-2.11 -12.66,-3.059 -4.63,-1.641 -7.76,-4.351 -9.41,-8.172 -1.64,-3.828 -2.45,-7.969 -2.45,-12.461 V 460.121 h 4.1 c 12.25,10.359 24.31,21.098 36.17,32.258 11.84,11.332 22.6,22.562 32.28,33.723 10.75,12.41 18.58,22.277 23.49,29.636 5.05,7.481 7.55,14.082 7.55,19.832 0,2.039 -1.28,3.66 -3.87,4.879 -2.46,1.371 -5.3,2.461 -8.59,3.289 -3.82,0.813 -7.21,1.282 -10.22,1.41 -2.98,0.282 -5.44,0.493 -7.34,0.633 v 14.5 h 108.68 v -14.5 c -0.39,0 -1.27,-0.07 -2.64,-0.211 -1.36,-0.14 -2.94,-0.281 -4.7,-0.422 -1.9,-0.128 -3.82,-0.386 -5.72,-0.808 -1.92,-0.41 -4.37,-0.879 -7.36,-1.43 -4.77,-1.09 -9.75,-2.871 -14.91,-5.301 -5.05,-2.339 -9.2,-5.257 -12.46,-8.8 -14.04,-15.911 -28.67,-32.399 -43.93,-49.45 -15.27,-17.019 -30.39,-32.558 -45.37,-46.57 20.7,-23.43 37.79,-43.578 51.29,-60.488 13.62,-16.879 28.05,-34.922 43.31,-54.141 5.86,-7.371 11.72,-13.289 17.58,-17.762 5.86,-4.378 10.9,-7.648 15.12,-9.82 3.54,-1.789 7.97,-3.148 13.27,-4.098 5.32,-0.949 9.75,-1.48 13.29,-1.621 V 310.34" /><path
         id="path36"
         style="fill:#a7a5a6;fill-opacity:1;fill-rule:nonzero;stroke:none"
         d="m 2589.36,310.34 h -128.11 v 14.519 c 4.63,0.141 10.56,0.602 17.79,1.411 7.34,0.832 12.39,1.968 15.12,3.5 4.21,2.57 7.27,5.492 9.19,8.769 2.04,3.41 3.06,7.621 3.06,12.672 V 562.07 h -3.06 l -98.88,-247.031 h -10.24 l -94.18,252.141 h -2.66 V 394.121 c 0,-16.742 1.01,-29.48 3.05,-38.211 2.2,-8.73 5.47,-14.98 9.82,-18.801 2.99,-2.871 9.19,-5.578 18.6,-8.148 9.4,-2.621 15.51,-3.961 18.38,-4.102 V 310.34 h -117.08 v 14.519 c 6.13,0.532 12.53,1.551 19.22,3.051 6.81,1.488 12.04,3.762 15.72,6.738 4.77,3.821 8.04,9.68 9.8,17.582 1.78,7.899 2.66,21.122 2.66,39.622 V 540.23 c 0,8.571 -1.02,15.579 -3.06,21.032 -2.03,5.437 -4.97,9.879 -8.8,13.269 -4.21,3.68 -9.37,6.41 -15.51,8.188 -6.14,1.761 -12.18,2.781 -18.18,3.062 v 14.5 h 98.89 l 82.95,-217.39 70.91,181.839 c 2.59,6.668 4.77,13.622 6.53,20.84 1.9,7.371 2.94,12.25 3.06,14.711 h 94.6 v -14.5 c -3.8,-0.14 -8.71,-0.761 -14.71,-1.851 -5.86,-1.071 -10.14,-2.11 -12.85,-3.059 -4.66,-1.641 -7.78,-4.351 -9.4,-8.172 -1.65,-3.828 -2.46,-7.969 -2.46,-12.461 V 351.211 c 0,-4.75 0.81,-8.781 2.46,-12.063 1.62,-3.269 4.74,-6.136 9.4,-8.57 2.43,-1.387 6.81,-2.668 13.06,-3.887 6.25,-1.089 11.23,-1.691 14.91,-1.832 V 310.34" /><path
         id="path38"
         style="fill:#a7a5a6;fill-opacity:1;fill-rule:evenodd;stroke:none"
         d="m 3112.21,356.93 c -12.67,16.07 -26.98,33.648 -42.91,52.699 -15.8,19.23 -28.46,35.441 -38,48.641 -11.03,-7.622 -18.88,-16.61 -23.49,-26.961 -4.51,-10.239 -6.76,-21.93 -6.76,-35.149 0,-18.531 5.26,-33.93 15.75,-46.18 10.6,-12.109 24.78,-18.179 42.49,-18.179 9.94,0 19.66,2.109 29.23,6.32 9.66,4.379 17.55,10.629 23.69,18.809 m -15.96,188.992 c 0,13.918 -3.03,24.547 -9.19,31.887 -6.11,7.48 -14.84,11.23 -26.12,11.23 -6.42,0 -11.74,-1.301 -15.96,-3.891 -4.24,-2.589 -7.83,-5.859 -10.84,-9.769 -2.71,-3.848 -4.67,-7.918 -5.9,-12.301 -1.23,-4.328 -1.85,-8.219 -1.85,-11.648 0,-9.379 2.45,-18.918 7.36,-28.578 4.91,-9.543 12.53,-21.122 22.88,-34.731 14.03,7.891 24.11,16.391 30.24,25.52 6.26,9.257 9.38,20.031 9.38,32.281 m 144.49,-66.391 c -8.04,-0.679 -16.17,-2.32 -24.32,-4.91 -8.17,-2.461 -14.45,-6.402 -18.8,-11.859 -2.87,-3.242 -5.79,-8.082 -8.78,-14.5 -2.87,-6.391 -6.34,-13.961 -10.42,-22.672 -4.1,-8.731 -8.27,-17.301 -12.48,-25.75 -4.22,-8.449 -9.66,-16.879 -16.33,-25.34 5.44,-6.551 12.11,-13.68 20.01,-21.441 7.9,-7.637 14.64,-13.149 20.22,-16.559 5.46,-3.148 13.15,-5.789 23.11,-7.969 10.07,-2.172 18.32,-3.402 24.71,-3.679 v -14.524 h -84.18 l -30.43,34.742 c -4.52,-4.89 -9.68,-10 -15.54,-15.308 -5.72,-5.192 -11.79,-9.684 -18.18,-13.5 -7.09,-4.082 -14.24,-7.274 -21.47,-9.59 -7.08,-2.313 -15.47,-3.473 -25.12,-3.473 -10.08,0 -20.11,1.5 -30.04,4.492 -9.96,2.868 -18.99,7.481 -27.17,13.899 -7.92,6.25 -14.31,14.289 -19.22,24.101 -4.88,9.797 -7.34,21.52 -7.34,35.137 0,16.902 4.43,32.16 13.27,45.781 8.99,13.731 25.68,28.321 50.07,43.719 -11.02,14.57 -19.61,27.172 -25.75,37.801 -6.12,10.633 -9.2,22.551 -9.2,35.75 0,9.402 1.83,18 5.52,25.75 3.82,7.902 9.12,14.781 15.95,20.641 6.25,5.32 13.87,9.449 22.88,12.46 8.99,3.008 18.11,4.489 27.38,4.489 10.88,0 20.42,-1.778 28.6,-5.297 8.31,-3.41 15.05,-7.922 20.24,-13.481 4.77,-5.191 8.36,-11.16 10.81,-17.972 2.59,-6.828 3.89,-13.641 3.89,-20.449 0,-16.348 -5.12,-30.45 -15.33,-42.29 -10.07,-11.718 -24.04,-22.281 -41.89,-31.679 12.8,-17.321 25.33,-33.09 37.61,-47.379 12.25,-14.203 24.03,-28.141 35.34,-41.922 9.12,14.59 16.21,28.281 21.25,41.059 5.05,12.953 7.55,24.32 7.58,34.14 0,4.379 -3.22,7.762 -9.64,10.211 -6.25,2.602 -14.98,5.051 -26.12,7.371 v 14.52 h 109.31 v -14.52" /><path
         id="path40"
         style="fill:#a7a5a6;fill-opacity:1;fill-rule:evenodd;stroke:none"
         d="M 3749.68,428.871 3705.75,541.23 3662.63,428.871 Z M 3866.54,310.34 h -120.75 v 14.519 c 10.63,0.672 19.41,2.039 26.35,4.082 7.09,2.039 10.63,4.559 10.63,7.571 0,1.199 -0.14,2.707 -0.39,4.488 -0.3,1.762 -0.7,3.34 -1.25,4.68 l -24.11,64.98 H 3655.5 c -3.83,-9.519 -6.97,-17.851 -9.43,-24.922 -2.32,-7.078 -4.42,-13.609 -6.32,-19.609 -1.78,-5.859 -2.99,-10.629 -3.68,-14.309 -0.68,-3.66 -1.02,-6.672 -1.02,-8.992 0,-5.437 4.28,-9.68 12.87,-12.668 8.6,-3.012 18.25,-4.769 29.02,-5.301 V 310.34 h -109.12 v 14.519 c 3.54,0.262 7.97,1.02 13.29,2.219 5.31,1.371 9.66,3.152 13.09,5.332 5.44,3.68 9.65,7.481 12.64,11.442 3.01,4.097 5.93,9.66 8.8,16.769 14.57,36.359 30.64,77.231 48.22,122.598 17.57,45.34 33.23,85.73 46.98,121.14 h 16.35 l 96.67,-250.089 c 2.03,-5.301 4.35,-9.61 6.94,-12.848 2.57,-3.293 6.19,-6.512 10.82,-9.613 3.12,-1.899 7.22,-3.571 12.27,-4.911 5.03,-1.226 9.24,-1.898 12.65,-2.039 V 310.34" /><path
         id="path42"
         style="fill:#a7a5a6;fill-opacity:1;fill-rule:nonzero;stroke:none"
         d="m 4120.82,310.34 h -130.56 v 14.519 c 3.68,0.27 8.98,0.672 15.93,1.219 6.95,0.543 11.86,1.352 14.7,2.461 4.5,1.762 7.79,4.141 9.82,7.16 2.04,3.102 3.06,7.41 3.06,12.852 v 210.07 c 0,4.738 -0.76,8.699 -2.25,11.828 -1.48,3.262 -5.04,5.973 -10.63,8.172 -4.07,1.629 -9.24,3.129 -15.51,4.5 -6.14,1.5 -11.19,2.379 -15.12,2.66 v 14.5 h 130.56 v -14.5 c -4.24,-0.14 -9.26,-0.691 -15.12,-1.64 -5.86,-0.813 -10.98,-1.93 -15.33,-3.27 -5.16,-1.641 -8.66,-4.281 -10.42,-7.973 -1.78,-3.679 -2.64,-7.75 -2.64,-12.25 V 350.789 c 0,-4.469 0.95,-8.488 2.85,-12.039 2.03,-3.43 5.44,-6.129 10.21,-8.172 2.87,-1.09 7.48,-2.34 13.89,-3.687 6.53,-1.219 12.07,-1.891 16.56,-2.032 V 310.34" /><path
         id="path44"
         style="fill:#a7a5a6;fill-opacity:1;fill-rule:nonzero;stroke:none"
         d="m 4672.88,443.359 c 6.13,-6.808 10.6,-14.289 13.47,-22.48 3.01,-8.02 4.5,-17.438 4.5,-28.188 0,-25.613 -9.45,-46.73 -28.39,-63.339 -18.95,-16.622 -42.43,-24.911 -70.5,-24.942 -12.94,0 -25.87,1.988 -38.81,5.93 -12.95,4.101 -24.13,9.012 -33.51,14.73 l -8.8,-14.941 h -16.35 l -2.85,99.312 h 16.56 c 3.4,-12.261 7.34,-23.371 11.83,-33.281 4.66,-9.82 10.7,-19.039 18.18,-27.609 7.11,-8.031 15.33,-14.449 24.73,-19.199 9.55,-4.774 20.59,-7.153 33.12,-7.153 9.38,0 17.55,1.231 24.5,3.68 7.09,2.461 12.81,5.93 17.19,10.422 4.35,4.488 7.54,9.73 9.58,15.73 2.18,6.129 3.27,13.149 3.27,21.047 0,11.582 -3.27,22.344 -9.8,32.262 -6.55,10.09 -16.28,17.711 -29.22,22.898 -8.85,3.543 -18.99,7.434 -30.46,11.653 -11.44,4.347 -21.3,8.449 -29.62,12.269 -16.32,7.34 -29.08,16.93 -38.21,28.789 -8.98,11.992 -13.47,27.582 -13.47,46.781 0,11.04 2.24,21.329 6.73,30.891 4.5,9.52 10.89,18.039 19.2,25.52 7.92,7.089 17.26,12.597 28,16.558 10.77,4.102 22,6.141 33.72,6.141 13.34,0 25.26,-2.039 35.76,-6.141 10.62,-4.097 20.28,-8.871 29.01,-14.308 l 8.39,13.89 h 16.35 l 1.62,-96.242 h -16.56 c -2.99,11.039 -6.39,21.602 -10.21,31.68 -3.66,10.07 -8.5,19.191 -14.5,27.371 -5.86,7.922 -13.02,14.172 -21.47,18.781 -8.43,4.77 -18.78,7.18 -31.05,7.18 -12.93,0 -23.97,-4.172 -33.1,-12.461 -9.12,-8.34 -13.68,-18.481 -13.68,-30.481 0,-12.519 2.91,-22.918 8.77,-31.238 5.86,-8.172 14.38,-14.91 25.55,-20.211 9.93,-4.769 19.68,-8.941 29.22,-12.461 9.66,-3.429 18.99,-7.109 27.98,-11.051 8.2,-3.539 16.02,-7.546 23.53,-12.039 7.61,-4.519 14.22,-9.75 19.8,-15.75" /><path
         id="path46"
         style="fill:#a7a5a6;fill-opacity:1;fill-rule:evenodd;stroke:none"
         d="m 5048.1,360.41 c 7.64,12.391 13.15,26.418 16.56,42.078 3.52,15.672 5.28,33.184 5.3,52.524 0,19.867 -1.97,38.117 -5.91,54.738 -3.84,16.629 -9.49,30.781 -16.97,42.52 -7.48,11.558 -16.88,20.57 -28.21,26.96 -11.3,6.532 -24.24,9.821 -38.81,9.821 -16.33,0 -30.24,-3.75 -41.68,-11.231 -11.44,-7.511 -20.78,-17.511 -27.98,-30.039 -6.81,-12 -11.93,-26.031 -15.31,-42.101 -3.31,-16.071 -4.93,-32.961 -4.93,-50.668 0,-19.621 1.76,-37.313 5.33,-53.133 3.54,-15.809 9.12,-29.82 16.74,-42.07 7.36,-12 16.6,-21.399 27.79,-28.207 11.16,-6.672 24.5,-10.032 40.04,-10.032 14.57,0 27.74,3.43 39.46,10.239 11.7,6.812 21.24,16.351 28.58,28.601 m 30.45,205.551 c 12.79,-13.34 22.84,-29.481 30.01,-48.422 7.25,-18.809 10.84,-39.648 10.87,-62.527 0,-23.024 -3.69,-43.934 -11.03,-62.742 -7.38,-18.801 -17.6,-34.801 -30.68,-48 -12.67,-13.09 -27.35,-23.161 -44.12,-30.25 -16.76,-7.09 -34.62,-10.61 -53.54,-10.629 -20.17,0 -38.81,3.75 -55.97,11.23 -17.05,7.649 -31.68,18.207 -43.93,31.707 -12.25,13.203 -21.94,29.184 -29.02,48 -6.95,18.922 -10.42,39.141 -10.42,60.684 0,23.566 3.68,44.527 11.04,62.937 7.34,18.531 17.49,34.512 30.43,48.012 12.81,13.34 27.63,23.57 44.56,30.641 17,7.078 34.78,10.628 53.31,10.628 19.22,0 37.33,-3.621 54.35,-10.839 17.05,-7.2 31.73,-17.371 44.14,-30.43" /><path
         id="path48"
         style="fill:#a7a5a6;fill-opacity:1;fill-rule:nonzero;stroke:none"
         d="m 5505.68,396.57 -6.14,-86.242 h -226.6 v 14.524 c 3.29,0.277 7.99,0.757 14.12,1.437 6.23,0.672 10.63,1.551 13.06,2.66 4.08,1.762 7.02,4.332 8.78,7.762 1.9,3.379 2.85,7.758 2.87,13.059 v 207.609 c 0,4.609 -0.81,8.711 -2.45,12.281 -1.51,3.52 -4.56,6.36 -9.2,8.559 -3.12,1.621 -7.55,3.179 -13.27,4.703 -5.58,1.629 -10.23,2.578 -13.91,2.848 v 14.519 h 122.39 V 585.77 c -3.8,-0.141 -8.78,-0.809 -14.92,-2.032 -5.97,-1.226 -10.32,-2.34 -13.08,-3.289 -4.61,-1.621 -7.8,-4.429 -9.59,-8.359 -1.62,-3.961 -2.43,-8.18 -2.43,-12.668 V 364.711 c 0,-9.012 0.39,-16.012 1.23,-21.063 0.95,-4.898 3.03,-8.726 6.32,-11.437 3.13,-2.449 7.76,-4.09 13.89,-4.91 6.26,-0.692 14.97,-1.012 26.13,-1.012 5.07,0 10.3,0.133 15.74,0.391 5.47,0.281 10.63,0.808 15.54,1.672 4.77,0.808 9.13,1.898 13.09,3.238 4.07,1.5 7.06,3.332 8.98,5.531 5.58,6.258 12.07,15.707 19.41,28.399 7.48,12.8 12.64,23.128 15.54,31.05 h 14.5" /><path
         id="path50"
         style="fill:#a7a5a6;fill-opacity:1;fill-rule:nonzero;stroke:none"
         d="m 5935.87,585.77 c -3.82,-0.141 -9.38,-0.95 -16.77,-2.43 -7.32,-1.531 -13.34,-3.781 -17.97,-6.738 -4.63,-3.153 -7.83,-9.614 -9.59,-19.43 -1.78,-9.801 -2.66,-21.793 -2.66,-35.961 V 395.16 c 0,-16.101 -3.34,-30.039 -10.03,-41.898 -6.67,-11.852 -15.47,-21.602 -26.35,-29.223 -10.77,-7.367 -22.14,-12.617 -34.11,-15.73 -11.86,-3.289 -23.23,-4.911 -34.12,-4.911 -17.46,0 -32.97,2.321 -46.59,6.93 -13.64,4.512 -25.08,10.633 -34.32,18.41 -9.15,7.762 -16.03,16.602 -20.66,26.563 -4.63,10.07 -6.95,20.59 -6.95,31.449 v 171.461 c 0,4.75 -0.81,8.711 -2.43,11.84 -1.5,3.258 -4.65,6.269 -9.4,8.98 -3.43,1.899 -7.78,3.379 -13.08,4.489 -5.31,1.23 -9.68,1.968 -13.06,2.25 v 14.519 h 120.74 V 585.77 c -3.82,-0.141 -8.66,-0.739 -14.5,-1.829 -5.74,-1.089 -9.95,-2.132 -12.66,-3.082 -4.66,-1.621 -7.78,-4.328 -9.4,-8.148 -1.51,-3.82 -2.27,-7.973 -2.27,-12.481 V 400.039 c 0,-7.758 0.81,-15.93 2.45,-24.5 1.78,-8.449 5.19,-16.348 10.21,-23.738 5.33,-7.481 12.53,-13.59 21.66,-18.36 9.14,-4.793 21.67,-7.16 37.58,-7.16 15.01,0 27.54,2.367 37.63,7.16 10.22,4.77 18.25,11.02 24.09,18.778 5.6,7.371 9.54,15.051 11.86,23.09 2.31,8.062 3.47,16.14 3.47,24.339 V 518.57 c 0,15.102 -1.09,27.418 -3.27,36.961 -2.17,9.649 -5.37,16.02 -9.58,19.008 -4.8,3.402 -11.3,6.039 -19.64,7.973 -8.15,1.886 -14.43,2.976 -18.78,3.258 v 14.519 h 118.5 V 585.77" /><path
         id="path52"
         style="fill:#a7a5a6;fill-opacity:1;fill-rule:nonzero;stroke:none"
         d="m 6311.94,521.609 h -14.11 c -1.22,4.911 -3.49,10.7 -6.73,17.371 -3.15,6.809 -6.7,13.2 -10.63,19.219 -4.1,6.25 -8.6,11.699 -13.48,16.332 -4.8,4.77 -9.43,7.481 -13.92,8.199 -4.24,0.532 -9.52,0.95 -15.93,1.2 -6.42,0.281 -12.32,0.422 -17.79,0.422 h -11.86 v -231.93 c 0,-4.473 0.95,-8.641 2.85,-12.442 1.92,-3.679 5.26,-6.55 10.05,-8.589 2.43,-0.95 7.55,-2.25 15.31,-3.891 7.9,-1.621 14.03,-2.5 18.39,-2.641 V 310.34 H 6117.2 v 14.519 c 3.82,0.282 9.61,0.813 17.37,1.621 7.9,0.809 13.34,1.848 16.35,3.079 4.47,1.761 7.76,4.281 9.79,7.55 2.18,3.403 3.27,7.903 3.27,13.481 v 233.762 h -11.83 c -4.24,0 -9.5,-0.141 -15.75,-0.422 -6.28,-0.121 -12.25,-0.532 -17.95,-1.2 -4.54,-0.582 -9.24,-3.289 -14.13,-8.199 -4.77,-4.769 -9.19,-10.222 -13.29,-16.332 -4.07,-6.14 -7.69,-12.687 -10.81,-19.64 -3.15,-6.809 -5.33,-12.457 -6.56,-16.95 h -14.29 v 78.672 h 252.57 v -78.672" /><path
         id="path54"
         style="fill:#a7a5a6;fill-opacity:1;fill-rule:nonzero;stroke:none"
         d="m 6579.07,310.34 h -130.59 v 14.519 c 3.71,0.27 9.01,0.672 15.96,1.219 6.95,0.543 11.83,1.352 14.73,2.461 4.47,1.762 7.73,4.141 9.77,7.16 2.06,3.102 3.06,7.41 3.06,12.852 v 210.07 c 0,4.738 -0.72,8.699 -2.25,11.828 -1.48,3.262 -5.02,5.973 -10.58,8.172 -4.12,1.629 -9.29,3.129 -15.54,4.5 -6.14,1.5 -11.21,2.379 -15.15,2.66 v 14.5 h 130.59 v -14.5 c -4.26,-0.14 -9.26,-0.691 -15.12,-1.64 -5.86,-0.813 -10.98,-1.93 -15.33,-3.27 -5.19,-1.641 -8.66,-4.281 -10.45,-7.973 -1.76,-3.679 -2.64,-7.75 -2.64,-12.25 V 350.789 c 0,-4.469 0.98,-8.488 2.88,-12.039 2.03,-3.43 5.44,-6.129 10.21,-8.172 2.87,-1.09 7.48,-2.34 13.89,-3.687 6.53,-1.219 12.05,-1.891 16.56,-2.032 V 310.34" /><path
         id="path56"
         style="fill:#a7a5a6;fill-opacity:1;fill-rule:evenodd;stroke:none"
         d="m 6936.3,360.41 c 7.62,12.391 13.14,26.418 16.56,42.078 3.52,15.672 5.28,33.184 5.31,52.524 0,19.867 -1.97,38.117 -5.93,54.738 -3.82,16.629 -9.47,30.781 -16.95,42.52 -7.48,11.558 -16.89,20.57 -28.21,26.96 -11.3,6.532 -24.25,9.821 -38.81,9.821 -16.38,0 -30.25,-3.75 -41.69,-11.231 -11.46,-7.511 -20.77,-17.511 -28,-30.039 -6.78,-12 -11.9,-26.031 -15.3,-42.101 -3.29,-16.071 -4.91,-32.961 -4.91,-50.668 0,-19.621 1.76,-37.313 5.3,-53.133 3.57,-15.809 9.12,-29.82 16.77,-42.07 7.34,-12 16.6,-21.399 27.79,-28.207 11.13,-6.672 24.5,-10.032 40.04,-10.032 14.56,0 27.72,3.43 39.43,10.239 11.72,6.812 21.24,16.351 28.6,28.601 m 30.43,205.551 c 12.81,-13.34 22.86,-29.481 30.04,-48.422 7.25,-18.809 10.84,-39.648 10.86,-62.527 0,-23.024 -3.68,-43.934 -11.04,-62.742 -7.37,-18.801 -17.58,-34.801 -30.67,-48 -12.66,-13.09 -27.35,-23.161 -44.14,-30.25 -16.74,-7.09 -34.59,-10.61 -53.51,-10.629 -20.17,0 -38.82,3.75 -55.98,11.23 -17.04,7.649 -31.68,18.207 -43.93,31.707 -12.25,13.203 -21.93,29.184 -29.02,48 -6.94,18.922 -10.42,39.141 -10.42,60.684 0,23.566 3.66,44.527 11.03,62.937 7.36,18.531 17.5,34.512 30.45,48.012 12.81,13.34 27.63,23.57 44.56,30.641 16.99,7.078 34.78,10.628 53.31,10.628 19.22,0 37.33,-3.621 54.33,-10.839 17.06,-7.2 31.75,-17.371 44.13,-30.43" /><path
         id="path58"
         style="fill:#a7a5a6;fill-opacity:1;fill-rule:nonzero;stroke:none"
         d="m 7458.65,585.77 c -3.82,-0.141 -9.68,-1.231 -17.58,-3.258 -7.92,-2.043 -13.57,-4.153 -16.95,-6.332 -4.91,-3.399 -8.24,-9.95 -10,-19.629 -1.65,-9.66 -2.46,-21.91 -2.46,-36.781 V 307.48 h -17.78 L 7218.15,544.711 V 395.16 c 0,-16.769 1.02,-29.648 3.06,-38.629 2.18,-8.992 5.44,-15.383 9.82,-19.222 3.13,-2.989 9.59,-5.789 19.41,-8.36 9.82,-2.597 16.28,-3.961 19.4,-4.097 v -14.524 h -118.91 v 14.524 c 3.68,0.277 9.88,1.57 18.59,3.886 8.73,2.453 14.17,4.633 16.37,6.551 4.75,3.801 8.02,9.59 9.82,17.371 1.76,7.871 2.62,21.309 2.62,40.231 V 535.73 c 0,6.25 -1.09,12.52 -3.27,18.782 -2.17,6.269 -5.09,11.109 -8.77,14.488 -4.93,4.52 -11.58,8.34 -20.03,11.469 -8.29,3.261 -15.06,5.019 -20.22,5.301 v 14.519 h 82.74 l 163.04,-221.09 v 137.93 c 0,16.883 -1.09,29.801 -3.25,38.812 -2.17,9.129 -5.32,15.188 -9.42,18.18 -3.8,2.598 -10.05,5.117 -18.78,7.551 -8.57,2.476 -15.12,3.816 -19.62,4.098 v 14.519 h 117.9 V 585.77" /><path
         id="path60"
         style="fill:#a7a5a6;fill-opacity:1;fill-rule:nonzero;stroke:none"
         d="m 7779.72,443.359 c 6.16,-6.808 10.63,-14.289 13.48,-22.48 3.01,-8.02 4.49,-17.438 4.52,-28.188 0,-25.613 -9.47,-46.73 -28.39,-63.339 -18.97,-16.622 -42.45,-24.911 -70.5,-24.942 -12.97,0 -25.89,1.988 -38.83,5.93 -12.93,4.101 -24.11,9.012 -33.51,14.73 l -8.78,-14.941 h -16.35 l -2.87,99.312 h 16.56 c 3.4,-12.261 7.36,-23.371 11.83,-33.281 4.65,-9.82 10.7,-19.039 18.18,-27.609 7.11,-8.031 15.35,-14.449 24.75,-19.199 9.52,-4.774 20.57,-7.153 33.12,-7.153 9.38,0 17.53,1.231 24.5,3.68 7.09,2.461 12.81,5.93 17.14,10.422 4.38,4.488 7.57,9.73 9.63,15.73 2.18,6.129 3.27,13.149 3.27,21.047 0,11.582 -3.27,22.344 -9.82,32.262 -6.53,10.09 -16.28,17.711 -29.2,22.898 -8.87,3.543 -19.02,7.434 -30.46,11.653 -11.44,4.347 -21.3,8.449 -29.62,12.269 -16.35,7.34 -29.08,16.93 -38.23,28.789 -8.96,11.992 -13.48,27.582 -13.48,46.781 0,11.04 2.27,21.329 6.74,30.891 4.52,9.52 10.91,18.039 19.22,25.52 7.88,7.089 17.26,12.597 27.98,16.558 10.77,4.102 22.02,6.141 33.72,6.141 13.36,0 25.28,-2.039 35.75,-6.141 10.61,-4.097 20.29,-8.871 29.02,-14.308 l 8.38,13.89 h 16.35 l 1.65,-96.242 h -16.56 c -3.01,11.039 -6.42,21.602 -10.21,31.68 -3.66,10.07 -8.53,19.191 -14.52,27.371 -5.84,7.922 -13.02,14.172 -21.45,18.781 -8.45,4.77 -18.8,7.18 -31.08,7.18 -12.92,0 -23.97,-4.172 -33.09,-12.461 -9.12,-8.34 -13.66,-18.481 -13.66,-30.481 0,-12.519 2.91,-22.918 8.77,-31.238 5.86,-8.172 14.38,-14.91 25.55,-20.211 9.93,-4.769 19.68,-8.941 29.2,-12.461 9.68,-3.429 18.99,-7.109 28.02,-11.051 8.13,-3.539 15.96,-7.546 23.48,-12.039 7.62,-4.519 14.25,-9.75 19.8,-15.75" /></g></g></svg>