<?xml version="1.0" encoding="UTF-8" standalone="no"?>
<svg
   xmlns:dc="http://purl.org/dc/elements/1.1/"
   xmlns:cc="http://creativecommons.org/ns#"
   xmlns:rdf="http://www.w3.org/1999/02/22-rdf-syntax-ns#"
   xmlns:svg="http://www.w3.org/2000/svg"
   xmlns="http://www.w3.org/2000/svg"
   viewBox="0 0 966.65936 393.97412"
   height="393.97412"
   width="966.65936"
   xml:space="preserve"
   id="svg2"
   version="1.1"><metadata
     id="metadata8"><rdf:RDF><cc:Work
         rdf:about=""><dc:format>image/svg+xml</dc:format><dc:type
           rdf:resource="http://purl.org/dc/dcmitype/StillImage" /></cc:Work></rdf:RDF></metadata><defs
     id="defs6"><clipPath
       id="clipPath22"
       clipPathUnits="userSpaceOnUse"><path
         id="path20"
         d="M 0,0 H 725 V 296 H 0 Z" /></clipPath></defs><g
     transform="matrix(1.3333333,0,0,1.3333333,0,8.5160198e-6)"
     id="g10"><g
       id="g12"><g
         id="g14"><g
           id="g16"><g
             clip-path="url(#clipPath22)"
             id="g18"><g
               id="g24"><path
                 id="path26"
                 style="fill:#007377;fill-opacity:1;fill-rule:nonzero;stroke:none"
                 d="m 175.34,155.07 c 3.789,0 7.031,1.52 9.73,4.559 2.696,3.043 4.047,6.652 4.047,10.832 0,4.305 -1.351,7.949 -4.047,10.922 -2.699,2.98 -6,4.465 -9.902,4.465 -3.906,0 -7.207,-1.485 -9.902,-4.465 -2.7,-2.973 -4.047,-6.676 -4.047,-11.113 0,-4.18 1.375,-7.758 4.133,-10.735 2.753,-2.976 6.086,-4.465 9.988,-4.465 m -23.594,60.989 c -1.266,0 -2.066,-0.188 -2.41,-0.567 -0.344,-0.383 -0.516,-1.265 -0.516,-2.66 v -11.211 c 0,-1.394 0.172,-2.281 0.516,-2.66 0.344,-0.379 1.144,-0.57 2.41,-0.57 h 31.883 c 1.254,0 2.047,0.191 2.391,0.57 0.339,0.379 0.515,1.266 0.515,2.66 v 87.399 c 0,1.394 -0.176,2.281 -0.515,2.66 -0.344,0.379 -1.137,0.57 -2.391,0.57 h -15.891 c -1.254,0 -2.05,-0.191 -2.394,-0.57 -0.34,-0.379 -0.508,-1.266 -0.508,-2.66 v -72.961 z" /><path
                 id="path28"
                 style="fill:#007377;fill-opacity:1;fill-rule:nonzero;stroke:none"
                 d="m 224.836,194.59 c 0.684,-0.254 1.25,-0.379 1.707,-0.379 1.027,0 2.082,1.129 3.164,3.391 1.078,2.257 2.074,5.457 2.988,9.597 4.418,-4.387 8.633,-7.492 12.645,-9.308 4.012,-1.821 8.519,-2.731 13.519,-2.731 7.633,0 13.215,2.406 16.746,7.219 3.532,4.816 5.297,12.414 5.297,22.801 v 63.84 c 0,1.394 -0.172,2.281 -0.511,2.66 -0.344,0.379 -1.141,0.57 -2.391,0.57 h -15.891 c -1.254,0 -2.05,-0.191 -2.394,-0.57 -0.34,-0.379 -0.512,-1.27 -0.512,-2.668 v -58.664 c 0,-5.711 -0.785,-9.809 -2.355,-12.286 -1.571,-2.476 -4.106,-3.71 -7.598,-3.71 -2.559,0 -4.973,0.57 -7.246,1.714 -2.27,1.141 -4.918,3.172 -7.942,6.09 v 66.856 c 0,1.398 -0.171,2.289 -0.515,2.668 -0.34,0.379 -1.137,0.57 -2.387,0.57 h -15.894 c -1.254,0 -2.051,-0.191 -2.391,-0.57 -0.344,-0.379 -0.512,-1.266 -0.512,-2.66 v -63.84 c 0,-8.106 -1.207,-15.012 -3.617,-20.711 -0.344,-0.758 -0.516,-1.391 -0.516,-1.899 0,-0.761 0.458,-1.332 1.379,-1.711 z" /><path
                 id="path30"
                 style="fill:#007377;fill-opacity:1;fill-rule:nonzero;stroke:none"
                 d="m 308.973,190.41 c 0,-6.461 0.425,-11.558 1.281,-15.297 0.851,-3.734 2.305,-7.058 4.355,-9.972 5.125,-6.965 12.375,-10.45 21.743,-10.45 2.64,0 5.222,0.188 7.75,0.571 2.527,0.379 4.761,0.886 6.718,1.519 1.95,0.633 3.532,1.36 4.735,2.184 1.207,0.824 1.808,1.68 1.808,2.566 v 0.567 l -0.343,0.953 -3.102,13.488 c -0.457,1.141 -0.977,1.711 -1.551,1.711 -0.457,0 -1.031,-0.191 -1.719,-0.57 -3.558,-1.774 -7.007,-2.66 -10.336,-2.66 -4.019,0 -6.773,1.328 -8.265,3.992 -0.574,1.011 -0.945,2.215 -1.117,3.609 -0.172,1.395 -0.258,3.988 -0.258,7.789 v 7.981 h 19.633 c 1.949,0 2.925,0.632 2.925,1.898 0,0.508 -0.113,1.141 -0.343,1.902 l -2.41,11.02 c -0.461,1.898 -1.551,2.848 -3.274,2.848 h -16.531 v 72.961 c 0,1.394 -0.176,2.281 -0.516,2.66 -0.34,0.379 -1.136,0.57 -2.39,0.57 h -15.891 c -1.254,0 -2.051,-0.191 -2.391,-0.57 -0.343,-0.379 -0.511,-1.266 -0.511,-2.66 v -72.961 h -13.09 c -1.492,0 -2.356,-0.188 -2.582,-0.571 -0.231,-0.379 -0.344,-1.707 -0.344,-3.988 v -10.449 c 0,-1.774 0.973,-2.66 2.926,-2.66 h 13.09 z" /><path
                 id="path32"
                 style="fill:#007377;fill-opacity:1;fill-rule:nonzero;stroke:none"
                 d="m 394.391,214.348 c -4.938,0 -8.5,2.41 -10.68,7.222 -2.18,4.817 -3.27,12.731 -3.27,23.75 0,11.02 1.09,18.938 3.27,23.75 2.18,4.817 5.797,7.219 10.851,7.219 5.165,0 8.84,-2.402 11.02,-7.219 2.18,-4.812 3.273,-12.664 3.273,-23.562 0,-11.27 -1.121,-19.285 -3.359,-24.035 -2.238,-4.75 -5.941,-7.125 -11.105,-7.125 m 1.031,-19.188 c 5.625,0 10.707,1.172 15.238,3.516 4.539,2.344 8.383,5.668 11.539,9.976 3.16,4.305 5.602,9.532 7.321,15.672 1.722,6.145 2.585,13.082 2.585,20.805 0,7.73 -0.863,14.695 -2.585,20.902 -1.719,6.207 -4.192,11.496 -7.403,15.864 -3.215,4.371 -7.148,7.726 -11.797,10.07 -4.652,2.344 -9.847,3.515 -15.586,3.515 -11.828,0 -21.039,-4.402 -27.64,-13.203 -6.602,-8.804 -9.903,-21.121 -9.903,-36.957 0,-15.324 3.329,-27.422 9.989,-36.289 3.672,-4.812 7.75,-8.328 12.226,-10.547 4.481,-2.214 9.817,-3.324 16.016,-3.324" /><path
                 id="path34"
                 style="fill:#007377;fill-opacity:1;fill-rule:nonzero;stroke:none"
                 d="m 447.602,270.02 c 0.347,-1.266 0.918,-1.899 1.722,-1.899 0.344,0 0.864,0.188 1.551,0.57 9.066,5.446 16.875,8.168 23.418,8.168 2.988,0 5.398,-0.918 7.234,-2.754 1.836,-1.835 2.758,-4.21 2.758,-7.125 0,-1.265 -0.172,-2.406 -0.519,-3.421 -0.344,-1.012 -0.977,-1.961 -1.895,-2.848 -0.918,-0.887 -2.266,-1.773 -4.047,-2.66 -1.781,-0.887 -4.047,-1.899 -6.801,-3.043 -2.753,-1.137 -5.078,-2.184 -6.972,-3.133 -1.895,-0.949 -3.531,-1.805 -4.91,-2.566 -1.379,-0.758 -2.528,-1.52 -3.446,-2.278 -0.918,-0.761 -1.781,-1.523 -2.582,-2.281 -4.593,-4.812 -6.886,-11.02 -6.886,-18.621 0,-4.559 0.742,-8.738 2.238,-12.539 1.488,-3.801 3.617,-7.059 6.367,-9.785 2.758,-2.723 6,-4.844 9.734,-6.364 3.727,-1.523 7.836,-2.281 12.313,-2.281 2.754,0 5.652,0.285 8.695,0.856 3.043,0.57 5.883,1.3 8.528,2.183 2.636,0.887 4.82,1.84 6.543,2.852 1.722,1.015 2.582,1.965 2.582,2.851 0,0.633 -0.172,1.328 -0.52,2.09 l -4.301,10.828 c -0.578,1.141 -1.148,1.711 -1.722,1.711 -0.231,0 -0.688,-0.125 -1.379,-0.379 -6.66,-3.293 -12.457,-4.941 -17.391,-4.941 -7.352,0 -11.023,3.23 -11.023,9.691 0,2.532 0.714,4.496 2.152,5.887 1.434,1.395 4.504,3.106 9.215,5.129 3.211,1.398 5.883,2.598 8.008,3.613 2.121,1.012 3.929,1.93 5.422,2.754 1.492,0.824 2.726,1.649 3.703,2.469 0.976,0.828 1.921,1.68 2.843,2.566 4.704,5.196 7.059,11.657 7.059,19.379 0,4.055 -0.688,8.012 -2.066,11.875 -1.379,3.867 -3.332,7.254 -5.856,10.168 -5.164,5.824 -12.226,8.738 -21.18,8.738 -4.824,0 -9.789,-0.699 -14.898,-2.089 -5.109,-1.391 -9.902,-3.356 -14.379,-5.891 -1.609,-0.883 -2.641,-1.551 -3.102,-1.996 -0.457,-0.442 -0.687,-0.977 -0.687,-1.613 0,-0.383 0.027,-0.696 0.086,-0.95 0.059,-0.253 0.199,-0.695 0.43,-1.332 z" /><path
                 id="path36"
                 style="fill:#007377;fill-opacity:1;fill-rule:nonzero;stroke:none"
                 d="m 537.668,155.07 c 3.789,0 7.031,1.52 9.73,4.559 2.696,3.043 4.047,6.652 4.047,10.832 0,4.305 -1.351,7.949 -4.047,10.922 -2.699,2.98 -6,4.465 -9.902,4.465 -3.902,0 -7.207,-1.485 -9.902,-4.465 -2.699,-2.973 -4.047,-6.676 -4.047,-11.113 0,-4.18 1.379,-7.758 4.133,-10.735 2.758,-2.976 6.086,-4.465 9.988,-4.465 m -23.594,60.989 c -1.262,0 -2.066,-0.188 -2.41,-0.567 -0.344,-0.383 -0.516,-1.265 -0.516,-2.66 v -11.211 c 0,-1.394 0.172,-2.281 0.516,-2.66 0.344,-0.379 1.148,-0.57 2.41,-0.57 h 31.887 c 1.25,0 2.047,0.191 2.387,0.57 0.34,0.379 0.511,1.266 0.511,2.66 v 87.399 c 0,1.394 -0.171,2.281 -0.511,2.66 -0.34,0.379 -1.137,0.57 -2.387,0.57 h -15.895 c -1.254,0 -2.05,-0.191 -2.39,-0.57 -0.344,-0.379 -0.512,-1.266 -0.512,-2.66 v -72.961 z" /><path
                 id="path38"
                 style="fill:#007377;fill-opacity:1;fill-rule:nonzero;stroke:none"
                 d="m 596.391,289.027 c 0,1.391 -0.176,2.274 -0.524,2.657 -0.344,0.378 -1.156,0.566 -2.429,0.566 h -15.793 c -1.278,0 -2.086,-0.191 -2.434,-0.57 -0.348,-0.379 -0.52,-1.266 -0.52,-2.66 v -63.84 c 0,-2.407 -0.058,-4.528 -0.171,-6.364 -0.114,-1.836 -0.29,-3.515 -0.516,-5.035 -0.231,-1.523 -0.547,-2.976 -0.949,-4.371 -0.403,-1.394 -0.891,-2.976 -1.461,-4.75 -0.348,-0.762 -0.52,-1.453 -0.52,-2.09 0,-0.886 0.629,-1.644 1.895,-2.281 l 14.047,-5.129 c 0.464,-0.125 0.812,-0.219 1.043,-0.285 0.226,-0.063 0.464,-0.094 0.695,-0.094 0.926,0 1.879,1.246 2.863,3.739 0.985,2.496 1.879,5.851 2.692,10.074 4.82,-4.86 9.125,-8.313 12.914,-10.364 3.789,-2.046 8.035,-3.07 12.746,-3.07 8.84,0 15.093,4.481 18.769,13.434 4.918,-4.989 9.356,-8.477 13.301,-10.461 3.949,-1.981 8.324,-2.973 13.133,-2.973 7.894,0 13.387,3.168 16.473,9.5 1.261,2.66 2.089,5.512 2.492,8.551 0.398,3.039 0.597,7.473 0.597,13.297 v 62.512 c 0,1.394 -0.172,2.281 -0.515,2.66 -0.348,0.379 -1.149,0.57 -2.41,0.57 h -15.844 c -1.266,0 -2.067,-0.188 -2.41,-0.566 -0.344,-0.383 -0.52,-1.266 -0.52,-2.657 v -60.082 c 0,-5.304 -0.57,-9.062 -1.707,-11.277 -1.14,-2.211 -3.133,-3.32 -5.98,-3.32 -2.282,0 -4.532,0.632 -6.754,1.898 -2.223,1.266 -4.867,3.473 -7.946,6.633 v 66.148 c 0,1.391 -0.175,2.274 -0.519,2.657 -0.348,0.378 -1.16,0.566 -2.43,0.566 h -15.797 c -1.273,0 -2.086,-0.188 -2.433,-0.566 -0.348,-0.383 -0.52,-1.266 -0.52,-2.657 V 230.84 c 0,-6.317 -0.543,-10.578 -1.625,-12.789 -1.082,-2.215 -3.164,-3.321 -6.234,-3.321 -2.281,0 -4.559,0.633 -6.84,1.899 -2.277,1.262 -4.898,3.348 -7.859,6.25 z" /><path
                 id="path40"
                 style="fill:#007377;fill-opacity:1;fill-rule:nonzero;stroke:none"
                 d="m 703.035,162.281 c 1.52,0 2.578,-0.226 3.18,-0.687 0.601,-0.461 0.898,-1.27 0.898,-2.43 0,-1.082 -0.261,-1.812 -0.777,-2.191 -0.52,-0.379 -1.5,-0.571 -2.941,-0.571 h -1.141 v 5.879 z m 11.039,12 c 0.16,0.199 0.242,0.442 0.242,0.723 0,0.359 -0.304,0.621 -0.902,0.777 l -3.121,0.844 c -0.199,0.078 -0.379,0.117 -0.539,0.117 -0.32,0 -0.621,-0.219 -0.902,-0.66 l -5.036,-9.418 h -1.562 v 8.398 c 0,0.442 -0.078,0.731 -0.242,0.872 -0.16,0.14 -0.457,0.207 -0.899,0.207 h -3.297 c -0.441,0 -0.742,-0.079 -0.902,-0.239 -0.16,-0.16 -0.238,-0.48 -0.238,-0.961 v -21.718 c 0,-0.442 0.078,-0.731 0.238,-0.871 0.16,-0.137 0.461,-0.211 0.902,-0.211 h 6 c 3.118,0 5.387,0.562 6.809,1.679 1.418,1.121 2.129,2.922 2.129,5.403 0,1.597 -0.309,2.918 -0.93,3.961 -0.621,1.039 -1.629,1.941 -3.031,2.699 z m -9.359,-27.238 c -2.039,0 -3.981,0.461 -5.82,1.379 -1.84,0.922 -3.442,2.172 -4.801,3.75 -1.36,1.582 -2.438,3.422 -3.242,5.519 -0.797,2.102 -1.196,4.352 -1.196,6.75 0,2.403 0.399,4.661 1.196,6.782 0.804,2.121 1.894,3.961 3.273,5.519 1.379,1.563 2.988,2.801 4.828,3.723 1.84,0.918 3.82,1.379 5.942,1.379 2.078,0 4.039,-0.461 5.878,-1.379 1.84,-0.922 3.45,-2.16 4.829,-3.723 1.382,-1.558 2.472,-3.39 3.273,-5.488 0.801,-2.102 1.199,-4.352 1.199,-6.75 0,-2.442 -0.398,-4.723 -1.199,-6.84 -0.801,-2.121 -1.891,-3.973 -3.273,-5.551 -1.379,-1.582 -3,-2.82 -4.856,-3.718 -1.859,-0.903 -3.871,-1.352 -6.031,-1.352 m 0.422,-3.961 c 2.715,0 5.277,0.57 7.679,1.711 2.399,1.141 4.5,2.68 6.297,4.621 1.801,1.938 3.231,4.199 4.293,6.777 1.059,2.582 1.59,5.332 1.59,8.25 0,2.961 -0.531,5.731 -1.59,8.313 -1.062,2.578 -2.5,4.84 -4.32,6.777 -1.824,1.942 -3.953,3.473 -6.391,4.594 -2.441,1.117 -5.039,1.68 -7.8,1.68 -2.758,0 -5.372,-0.563 -7.829,-1.68 -2.464,-1.121 -4.601,-2.652 -6.421,-4.594 -1.821,-1.937 -3.262,-4.199 -4.321,-6.777 -1.062,-2.582 -1.59,-5.332 -1.59,-8.25 0,-3 0.528,-5.801 1.59,-8.402 1.059,-2.598 2.512,-4.872 4.352,-6.809 1.836,-1.941 4,-3.461 6.48,-4.559 2.477,-1.101 5.137,-1.652 7.981,-1.652" /><path
                 id="path42"
                 style="fill:#1d1d1b;fill-opacity:1;fill-rule:nonzero;stroke:none"
                 d="M 0,49.605 H 49.605 V 148.82 H 0 Z" /><path
                 id="path44"
                 style="fill:#007377;fill-opacity:1;fill-rule:nonzero;stroke:none"
                 d="m 49.605,99.215 h 49.609 v 99.211 H 49.605 Z" /><path
                 id="path46"
                 style="fill:#1d1d1b;fill-opacity:1;fill-rule:nonzero;stroke:none"
                 d="M 104.25,0 H 49.605 v 49.605 h 49.606 v 49.61 H 148.82 V 0 Z" /></g></g></g></g></g></g></svg>