<?xml version="1.0" encoding="ISO-8859-1"?>

<!DOCTYPE svg PUBLIC '-//W3C//DTD SVG 1.0//EN' 'http://www.w3.org/TR/2001/REC-SVG-20010904/DTD/svg10.dtd'>
<svg style="fill-opacity:1; color-rendering:auto; color-interpolation:auto; text-rendering:auto; stroke:black; stroke-linecap:square; stroke-miterlimit:10; shape-rendering:auto; stroke-opacity:1; fill:black; stroke-dasharray:none; font-weight:normal; stroke-width:1; font-family:&apos;Dialog&apos;; font-style:normal; stroke-linejoin:miter; font-size:12; stroke-dashoffset:0; image-rendering:auto;" xmlns="http://www.w3.org/2000/svg" width="230" xmlns:xlink="http://www.w3.org/1999/xlink" height="360">
  <!--Generated by the Batik Graphics2D SVG Generator-->
  <defs id="genericDefs" />
  <g>
    <g style="fill:silver; stroke:silver;" transform="translate(18,16)">
      <rect x="38" y="66" width="68" style="stroke:none;" height="34" />
      <rect x="38" y="66" width="68" style="fill:none; stroke:black;" height="34" />
      <rect x="2" y="4" width="140" style="stroke:none;" height="34" />
      <rect x="2" y="4" width="140" style="fill:none; stroke:black;" height="34" />
      <rect x="63" y="276" width="52" style="stroke:none;" height="34" />
      <rect x="63" y="276" width="52" style="fill:none; stroke:black;" height="34" />
      <rect x="138.5" y="276" width="33" style="stroke:none;" height="34" />
      <rect x="138.5" y="276" width="33" style="fill:none; stroke:black;" height="34" />
      <rect x="62" y="166" width="104" style="stroke:none;" height="34" />
      <rect x="62" y="166" width="104" style="fill:none; stroke:black;" height="34" />
      <rect x="68" y="62" width="8" style="fill:black; stroke:none;" height="4" />
      <rect x="68" y="62" width="8" style="fill:none; stroke:black;" height="4" />
    </g>
    <g style="font-size:10; font-family:sans-serif;" transform="translate(18,16)">
      <text xml:space="preserve" x="66" y="75.2822" style="stroke:none;">1</text>
      <rect x="74" y="100" width="8" style="stroke:none;" height="4" />
      <rect x="74" y="100" width="8" style="fill:none;" height="4" />
      <text xml:space="preserve" x="72" y="97.6416" style="stroke:none;">2</text>
      <rect x="44" y="100" width="8" style="stroke:none;" height="4" />
      <rect x="44" y="100" width="8" style="fill:none;" height="4" />
      <text xml:space="preserve" x="42" y="97.6416" style="stroke:none;">3</text>
      <rect x="92" y="100" width="8" style="stroke:none;" height="4" />
      <rect x="92" y="100" width="8" style="fill:none;" height="4" />
      <text xml:space="preserve" x="90" y="97.6416" style="stroke:none;">4</text>
      <text xml:space="preserve" x="40" y="86.4619" style="stroke:none;">Alexander</text>
      <rect x="44" y="38" width="8" style="stroke:none;" height="4" />
      <rect x="44" y="38" width="8" style="fill:none;" height="4" />
      <text xml:space="preserve" x="42" y="35.6416" style="stroke:none;">1</text>
      <rect x="8" y="38" width="8" style="stroke:none;" height="4" />
      <rect x="8" y="38" width="8" style="fill:none;" height="4" />
      <text xml:space="preserve" x="6" y="35.6416" style="stroke:none;">2</text>
      <rect x="68" y="38" width="8" style="stroke:none;" height="4" />
      <rect x="68" y="38" width="8" style="fill:none;" height="4" />
      <text xml:space="preserve" x="66" y="35.6416" style="stroke:none;">3</text>
      <rect x="128" y="38" width="8" style="stroke:none;" height="4" />
      <rect x="128" y="38" width="8" style="fill:none;" height="4" />
      <text xml:space="preserve" x="126" y="35.6416" style="stroke:none;">4</text>
      <text xml:space="preserve" x="4" y="24.4619" style="stroke:none;">Joachim</text>
      <line x1="96" x2="96" y1="272" style="fill:none; stroke:rgb(64,64,64);" y2="314" />
      <rect x="92" y="272" width="8" style="stroke:none;" height="4" />
      <rect x="92" y="272" width="8" style="fill:none;" height="4" />
      <text xml:space="preserve" x="90" y="285.2822" style="stroke:none;">2</text>
      <rect x="92" y="310" width="8" style="stroke:none;" height="4" />
      <rect x="92" y="310" width="8" style="fill:none;" height="4" />
      <text xml:space="preserve" x="90" y="307.6416" style="stroke:none;">1</text>
      <text xml:space="preserve" x="65" y="296.4619" style="stroke:none;">Johannes</text>
      <rect x="152" y="272" width="8" style="stroke:none;" height="4" />
      <rect x="152" y="272" width="8" style="fill:none;" height="4" />
      <text xml:space="preserve" x="150" y="285.2822" style="stroke:none;">1</text>
      <text xml:space="preserve" x="140.5" y="296.4619" style="stroke:none;">Julian</text>
      <line x1="96" x2="96" y1="162" style="fill:none; stroke:rgb(64,64,64);" y2="204" />
      <line x1="132" x2="132" y1="162" style="fill:none; stroke:rgb(64,64,64);" y2="204" />
      <rect x="92" y="200" width="8" style="stroke:none;" height="4" />
      <rect x="92" y="200" width="8" style="fill:none;" height="4" />
      <text xml:space="preserve" x="90" y="197.6416" style="stroke:none;">2</text>
      <rect x="68" y="200" width="8" style="stroke:none;" height="4" />
      <rect x="68" y="200" width="8" style="fill:none;" height="4" />
      <text xml:space="preserve" x="66" y="197.6416" style="stroke:none;">1</text>
      <rect x="152" y="200" width="8" style="stroke:none;" height="4" />
      <rect x="152" y="200" width="8" style="fill:none;" height="4" />
      <text xml:space="preserve" x="150" y="197.6416" style="stroke:none;">4</text>
      <rect x="128" y="200" width="8" style="stroke:none;" height="4" />
      <rect x="128" y="200" width="8" style="fill:none;" height="4" />
      <text xml:space="preserve" x="126" y="197.6416" style="stroke:none;">3</text>
      <rect x="74" y="162" width="8" style="stroke:none;" height="4" />
      <rect x="74" y="162" width="8" style="fill:none;" height="4" />
      <text xml:space="preserve" x="72" y="175.2822" style="stroke:none;">5</text>
      <rect x="92" y="162" width="8" style="stroke:none;" height="4" />
      <rect x="92" y="162" width="8" style="fill:none;" height="4" />
      <text xml:space="preserve" x="90" y="175.2822" style="stroke:none;">6</text>
      <rect x="128" y="162" width="8" style="stroke:none;" height="4" />
      <rect x="128" y="162" width="8" style="fill:none;" height="4" />
      <text xml:space="preserve" x="126" y="175.2822" style="stroke:none;">7</text>
      <rect x="152" y="162" width="8" style="stroke:none;" height="4" />
      <rect x="152" y="162" width="8" style="fill:none;" height="4" />
      <text xml:space="preserve" x="150" y="175.2822" style="stroke:none;">8</text>
      <text xml:space="preserve" x="64" y="186.4619" style="stroke:none;">Walter</text>
      <line x1="72" x2="72" y1="42" style="fill:none;" y2="62" />
      <line x1="12" x2="12" y1="42" style="fill:none;" y2="224" />
      <line x1="12" x2="132" y1="224" style="fill:none;" y2="224" />
      <line x1="132" x2="132" y1="224" style="fill:none;" y2="204" />
      <line x1="132" x2="132" y1="42" style="fill:none;" y2="162" />
      <line x1="78" x2="78" y1="104" style="fill:none;" y2="162" />
      <line x1="96" x2="96" y1="104" style="fill:none;" y2="162" />
      <line x1="48" x2="48" y1="104" style="fill:none;" y2="214" />
      <line x1="48" x2="72" y1="214" style="fill:none;" y2="214" />
      <line x1="72" x2="72" y1="214" style="fill:none;" y2="204" />
      <line x1="96" x2="96" y1="204" style="fill:none;" y2="272" />
      <line x1="156" x2="156" y1="204" style="fill:none;" y2="272" />
      <line x1="156" x2="156" y1="162" style="fill:none;" y2="124" />
      <line x1="156" x2="192" y1="124" style="fill:none;" y2="124" />
      <line x1="192" x2="192" y1="124" style="fill:none;" y2="324" />
      <line x1="192" x2="96" y1="324" style="fill:none;" y2="324" />
      <line x1="96" x2="96" y1="324" style="fill:none;" y2="314" />
    </g>
  </g>
</svg>
