<?xml version="1.0" encoding="UTF-8" standalone="no"?>
<svg
   xmlns:dc="http://purl.org/dc/elements/1.1/"
   xmlns:cc="http://creativecommons.org/ns#"
   xmlns:rdf="http://www.w3.org/1999/02/22-rdf-syntax-ns#"
   xmlns:svg="http://www.w3.org/2000/svg"
   xmlns="http://www.w3.org/2000/svg"
   viewBox="0 0 347.41 151.9375"
   height="151.9375"
   width="347.41"
   xml:space="preserve"
   id="svg2"
   version="1.1"><metadata
     id="metadata8"><rdf:RDF><cc:Work
         rdf:about=""><dc:format>image/svg+xml</dc:format><dc:type
           rdf:resource="http://purl.org/dc/dcmitype/StillImage" /></cc:Work></rdf:RDF></metadata><defs
     id="defs6" /><g
     transform="matrix(1.3333333,0,0,1.3333333,0,3.7984375e-6)"
     id="g10"><g
       id="g12"><path
         id="path14"
         style="fill:#ffffff;fill-opacity:1;fill-rule:nonzero;stroke:none"
         d="m 21.438,19.668 h 92.527 V 97.121 H 21.438 Z" /><path
         id="path16"
         style="fill:#004188;fill-opacity:1;fill-rule:nonzero;stroke:none"
         d="M 0,113.953 V 0 H 113.953 V 22.789 H 22.789 V 91.16 h 91.164 v 22.793 z" /><path
         id="path18"
         style="fill:#004188;fill-opacity:1;fill-rule:nonzero;stroke:none"
         d="m 66.332,29.516 h 4.777 v 15.257 c 0,1.739 0.067,2.137 0.399,2.77 0.535,1.035 1.637,1.602 3.172,1.602 2.039,0 3.34,-1 3.539,-2.704 0.066,-0.5 0.066,-0.832 0.066,-2.07 V 29.516 h 4.742 v 15.625 c 0,2.203 -0.035,2.636 -0.367,3.64 -0.601,1.836 -2.871,4.371 -7.879,4.371 -3.539,0 -6.109,-1.066 -7.445,-3.101 -0.77,-1.203 -1.004,-2.137 -1.004,-4.375 v -16.16" /><path
         id="path20"
         style="fill:#004188;fill-opacity:1;fill-rule:nonzero;stroke:none"
         d="m 87.703,29.516 h 5.172 l 4.441,9.281 c 1.168,2.469 2.071,4.91 2.539,6.578 -0.167,-1.801 -0.335,-4.773 -0.371,-6.379 l -0.097,-9.48 h 4.441 V 52.719 H 98.953 L 94.977,43.84 c -1.266,-2.906 -2.704,-6.176 -3.137,-7.613 0.168,1.902 0.199,4.64 0.234,6.578 l 0.133,9.914 H 87.703 V 29.516" /><path
         id="path22"
         style="fill:#004188;fill-opacity:1;fill-rule:nonzero;stroke:none"
         d="m 109.086,29.516 h 4.875 v 23.203 h -4.875 z" /><path
         id="path24"
         style="fill:#004188;fill-opacity:1;fill-rule:nonzero;stroke:none"
         d="m 117.348,29.516 h 5.109 l 3.84,12.086 c 0.101,0.402 0.469,1.601 0.734,2.605 0.133,0.566 0.203,0.801 0.336,1.434 0.133,-0.668 0.199,-0.868 0.399,-1.668 0.367,-1.235 0.566,-1.801 0.937,-2.973 l 3.938,-11.484 4.906,-0.036 -8.078,23.407 h -4.239 l -7.882,-23.371" /><path
         id="path26"
         style="fill:#004188;fill-opacity:1;fill-rule:nonzero;stroke:none"
         d="m 140.086,29.516 h 13.223 l -0.602,3.804 h -7.945 v 5.375 h 6.644 v 3.809 h -6.578 v 6.207 h 8.781 v 4.008 h -13.523 z" /><path
         id="path28"
         style="fill:#004188;fill-opacity:1;fill-rule:nonzero;stroke:none"
         d="m 157.113,29.48 8.649,0.036 c 4.105,0 6.808,2.738 6.808,6.808 0,3.477 -2.3,6.344 -5.172,6.414 0.465,0.367 0.664,0.567 0.965,0.969 1.336,1.668 5.578,9.012 5.578,9.012 h -5.507 c -0.903,-1.535 -1.27,-2.168 -2.172,-3.805 -2.305,-4.172 -3.039,-5.277 -3.84,-5.676 -0.234,-0.101 -0.367,-0.168 -0.734,-0.203 v 9.684 h -4.575 z m 4.606,3.774 -0.031,6.277 h 1.57 c 2.004,0 2.871,-0.199 3.504,-0.765 0.566,-0.536 0.902,-1.371 0.902,-2.34 0,-1.434 -0.566,-2.403 -1.668,-2.836 -0.535,-0.203 -1.504,-0.336 -2.641,-0.336 h -1.636" /><path
         id="path30"
         style="fill:#004188;fill-opacity:1;fill-rule:nonzero;stroke:none"
         d="m 192.102,31.152 -2.204,3.34 c -2.101,-1.269 -3.671,-1.769 -5.406,-1.769 -1.906,0 -3.242,1.097 -3.242,2.668 0,1.203 0.637,1.804 2.574,2.336 l 2.805,0.769 c 3.805,1.035 5.875,3.473 5.875,6.91 0,4.707 -3.805,7.813 -9.582,7.813 -2.637,0 -5.574,-0.766 -7.914,-2.102 l 1.738,-3.637 c 2.168,1.133 4.039,1.868 6.375,1.868 2.672,0 4.074,-1.102 4.074,-3.172 0,-1.504 -0.968,-2.469 -3.039,-3.004 l -2.57,-0.703 c -2.305,-0.633 -3.738,-1.535 -4.574,-2.938 -0.633,-1.035 -0.969,-2.234 -0.969,-3.539 0,-4.238 3.406,-7.176 8.316,-7.176 2.836,0 5.707,0.868 7.743,2.336" /><path
         id="path32"
         style="fill:#004188;fill-opacity:1;fill-rule:nonzero;stroke:none"
         d="m 196.645,29.516 h 4.875 v 23.203 h -4.875 z" /><path
         id="path34"
         style="fill:#004188;fill-opacity:1;fill-rule:nonzero;stroke:none"
         d="m 204.574,29.516 h 16.727 l -0.766,3.871 h -5.543 V 52.719 H 210.25 V 33.387 h -5.676 z" /><path
         id="path36"
         style="fill:#004188;fill-opacity:1;fill-rule:nonzero;stroke:none"
         d="m 228.211,29.449 h 5.043 l 7.312,23.27 h -5.007 l -1.637,-5.508 h -6.809 l -1.636,5.508 h -4.875 z m -1.402,-5.941 c 1.437,0 2.605,1.199 2.605,2.668 0,1.472 -1.203,2.672 -2.672,2.672 -1.433,0 -2.637,-1.2 -2.637,-2.672 0,-1.469 1.239,-2.668 2.704,-2.668 m 1.437,19.832 h 4.543 c 0,0 -0.769,-2.442 -1.269,-4.676 -0.235,-1.07 -0.938,-4.105 -0.938,-4.105 0,0 -0.668,2.738 -1.102,4.472 -0.433,1.668 -0.734,2.77 -1.234,4.309 m 8.211,-17.164 c 0,1.472 -1.199,2.672 -2.668,2.672 -1.469,0 -2.641,-1.2 -2.641,-2.672 0,-1.469 1.204,-2.668 2.707,-2.668 1.434,0 2.602,1.199 2.602,2.668" /><path
         id="path38"
         style="fill:#004188;fill-opacity:1;fill-rule:nonzero;stroke:none"
         d="m 240.828,29.516 h 16.727 l -0.77,3.871 h -5.539 v 19.332 h -4.742 V 33.387 h -5.676 z" /><path
         id="path40"
         style="fill:#004188;fill-opacity:1;fill-rule:nonzero;stroke:none"
         d="m 66.273,61.652 h 4.942 l 2,9.145 c 0.973,4.34 1.238,7.648 1.238,7.648 0.098,-0.902 0.5,-4.207 1.203,-7.414 l 2.067,-9.379 h 5.109 l 2.137,10.383 c 0.433,2.168 1,6.145 1,6.145 0.07,-0.739 0.871,-5.778 1.269,-7.715 l 1.903,-8.813 h 4.91 l -5.61,23.403 h -5.105 l -2.074,-9.45 C 80.461,72 80.195,69.062 80.16,68.863 c 0,0 -0.465,3.27 -1.133,6.676 l -1.902,9.516 H 71.812 L 66.273,61.652" /><path
         id="path42"
         style="fill:#004188;fill-opacity:1;fill-rule:nonzero;stroke:none"
         d="m 97.254,61.676 h 4.773 v 15.258 c 0,1.734 0.071,2.136 0.403,2.769 0.535,1.035 1.636,1.606 3.172,1.606 2.035,0 3.339,-1.004 3.539,-2.704 0.066,-0.503 0.066,-0.835 0.066,-2.074 V 61.676 h 4.742 v 15.625 c 0,2.203 -0.035,2.637 -0.367,3.64 -0.602,1.836 -2.871,4.371 -7.883,4.371 -3.535,0 -6.105,-1.066 -7.441,-3.105 -0.77,-1.203 -1.004,-2.137 -1.004,-4.371 v -16.16" /><path
         id="path44"
         style="fill:#004188;fill-opacity:1;fill-rule:nonzero;stroke:none"
         d="m 119.18,61.617 8.648,0.035 c 4.106,0 6.809,2.739 6.809,6.809 0,3.473 -2.301,6.344 -5.172,6.41 0.465,0.367 0.668,0.57 0.969,0.969 1.336,1.668 5.574,9.015 5.574,9.015 H 130.5 c -0.902,-1.535 -1.27,-2.171 -2.172,-3.808 -2.305,-4.172 -3.035,-5.274 -3.84,-5.676 -0.234,-0.098 -0.367,-0.164 -0.734,-0.199 v 9.683 h -4.574 z m 4.609,3.774 -0.035,6.277 h 1.57 c 2.004,0 2.871,-0.203 3.508,-0.77 0.566,-0.535 0.898,-1.367 0.898,-2.336 0,-1.437 -0.566,-2.402 -1.668,-2.839 -0.535,-0.2 -1.503,-0.332 -2.64,-0.332 h -1.633" /><path
         id="path46"
         style="fill:#004188;fill-opacity:1;fill-rule:nonzero;stroke:none"
         d="m 139.68,61.652 h 13.89 v 3.371 l -8.613,14.524 c -0.504,0.836 -1.203,1.633 -1.203,1.633 0,0 1.367,-0.133 2.301,-0.133 h 7.812 l -1.199,3.808 h -14.492 v -3.273 l 8.551,-14.121 c 0.632,-1.07 1.433,-2.106 1.433,-2.106 0,0 -0.969,0.168 -2.371,0.168 h -7.144 l 1.035,-3.871" /><path
         id="path48"
         style="fill:#004188;fill-opacity:1;fill-rule:nonzero;stroke:none"
         d="m 158.043,61.617 h 7.848 c 2.836,0 4.304,0.434 5.707,1.668 1.304,1.137 1.902,2.473 1.902,4.141 0,1.57 -0.566,2.906 -1.566,3.906 -0.668,0.633 -1.071,0.867 -2.137,1.203 3.105,0.934 4.605,2.805 4.605,5.844 0,3.203 -2.004,6.141 -6.074,6.41 -0.734,0.031 -1.703,0.066 -2.973,0.066 h -7.312 z m 4.609,3.973 v 5.344 h 2.77 c 1.101,0 1.601,-0.067 2.004,-0.301 0.633,-0.336 1.203,-1.473 1.203,-2.406 0,-0.969 -0.535,-1.934 -1.34,-2.336 -0.398,-0.168 -0.898,-0.301 -1.934,-0.301 z m 0.067,9.183 v 6.274 h 3.035 c 0.969,0 1.637,-0.164 2.172,-0.531 0.703,-0.536 1.203,-1.606 1.203,-2.707 0,-1.336 -0.703,-2.469 -1.703,-2.836 -0.571,-0.168 -0.738,-0.2 -1.805,-0.2 h -2.902" /><path
         id="path50"
         style="fill:#004188;fill-opacity:1;fill-rule:nonzero;stroke:none"
         d="m 178.031,61.652 h 4.778 v 15.254 c 0,1.739 0.062,2.137 0.398,2.774 0.535,1.035 1.637,1.601 3.172,1.601 2.035,0 3.34,-1 3.539,-2.703 0.066,-0.5 0.066,-0.836 0.066,-2.07 V 61.652 h 4.743 v 15.621 c 0,2.207 -0.036,2.641 -0.368,3.641 -0.601,1.836 -2.871,4.375 -7.882,4.375 -3.539,0 -6.11,-1.07 -7.442,-3.105 -0.769,-1.204 -1.004,-2.137 -1.004,-4.375 V 61.652" /><path
         id="path52"
         style="fill:#004188;fill-opacity:1;fill-rule:nonzero;stroke:none"
         d="m 200.035,61.617 8.645,0.035 c 4.105,0 6.812,2.739 6.812,6.809 0,3.473 -2.304,6.344 -5.176,6.41 0.469,0.367 0.668,0.57 0.969,0.969 1.336,1.668 5.578,9.015 5.578,9.015 h -5.511 c -0.903,-1.535 -1.27,-2.171 -2.168,-3.808 -2.309,-4.172 -3.039,-5.274 -3.844,-5.676 -0.231,-0.098 -0.363,-0.164 -0.731,-0.199 v 9.683 h -4.574 z m 4.606,3.774 -0.032,6.277 h 1.567 c 2.004,0 2.871,-0.203 3.508,-0.77 0.566,-0.535 0.898,-1.367 0.898,-2.336 0,-1.437 -0.566,-2.402 -1.668,-2.839 -0.531,-0.2 -1.5,-0.332 -2.637,-0.332 h -1.636" /><path
         id="path54"
         style="fill:#004188;fill-opacity:1;fill-rule:nonzero;stroke:none"
         d="m 236.039,63.953 -2.469,2.906 c -1.504,-1.234 -3.074,-1.804 -4.843,-1.804 -1.368,0 -2.536,0.402 -3.34,1.168 -1.567,1.504 -1.969,4.007 -1.969,7.48 0,3.305 0.57,5.442 1.738,6.609 0.867,0.836 2.137,1.305 3.637,1.305 1.035,0 1.871,-0.168 2.641,-0.57 v -5.274 h -3.539 l -0.602,-3.808 h 8.98 v 11.086 c -2.371,1.402 -4.976,2.07 -7.714,2.07 -3.469,0 -6.043,-1.137 -7.911,-3.539 -1.703,-2.168 -2.472,-4.641 -2.472,-8.113 0,-4.907 1.605,-8.379 4.844,-10.551 1.703,-1.133 3.437,-1.633 5.64,-1.633 2.805,0 5.344,0.899 7.379,2.668" /><path
         id="path56"
         style="fill:#004188;fill-opacity:1;fill-rule:nonzero;stroke:none"
         d="m 102.027,54.676 c 1.43,0 2.602,1.14 2.602,2.543 0,1.429 -1.172,2.597 -2.574,2.597 -1.43,0 -2.571,-1.168 -2.571,-2.597 0,-1.403 1.141,-2.543 2.543,-2.543" /><path
         id="path58"
         style="fill:#004188;fill-opacity:1;fill-rule:nonzero;stroke:none"
         d="m 109.238,54.676 c 1.43,0 2.602,1.14 2.602,2.543 0,1.429 -1.172,2.597 -2.574,2.597 -1.43,0 -2.567,-1.168 -2.567,-2.597 0,-1.403 1.137,-2.543 2.539,-2.543" /><path
         id="path60"
         style="fill:#004188;fill-opacity:1;fill-rule:nonzero;stroke:none"
         d="m 121.164,4.973 h 1.449 v 10.066 c 0,0.461 -0.015,0.977 -0.035,1.293 -0.035,0.586 -0.176,1.063 -0.406,1.488 -0.387,0.688 -1.117,1.239 -2.055,1.555 l -0.707,-0.902 c 0.656,-0.266 1.203,-0.707 1.453,-1.184 0.227,-0.41 0.301,-0.973 0.301,-2.211 V 4.973" /><path
         id="path62"
         style="fill:#004188;fill-opacity:1;fill-rule:nonzero;stroke:none"
         d="m 125.039,8.371 1.359,-0.266 v 6.336 c 0,0.864 0.11,1.184 0.516,1.45 0.281,0.195 0.707,0.336 1.098,0.336 0.867,0 1.769,-0.637 2.246,-1.594 V 8.391 l 1.363,-0.235 v 6.246 c 0,1.012 0.035,1.309 0.211,1.649 0.09,0.191 0.16,0.281 0.391,0.492 l -0.887,0.941 c -0.582,-0.48 -0.828,-0.832 -0.953,-1.418 -0.676,0.903 -1.594,1.344 -2.797,1.344 -1.113,0 -1.981,-0.457 -2.316,-1.254 -0.161,-0.336 -0.231,-0.797 -0.231,-1.308 V 8.371" /><path
         id="path64"
         style="fill:#004188;fill-opacity:1;fill-rule:nonzero;stroke:none"
         d="m 134.27,4.531 1.433,-0.281 c 0.231,0.672 0.211,1.66 0.211,2.723 v 8.371 c 0,0.687 0.106,0.883 0.496,0.883 0.055,0 0.18,-0.036 0.18,-0.036 l 0.281,0.903 c -0.351,0.16 -0.516,0.195 -0.883,0.195 -0.445,0 -0.781,-0.125 -1.047,-0.371 -0.316,-0.285 -0.425,-0.621 -0.425,-1.258 V 6.973 c 0,-1.328 -0.032,-1.825 -0.246,-2.442" /><path
         id="path66"
         style="fill:#004188;fill-opacity:1;fill-rule:nonzero;stroke:none"
         d="m 139.613,4.496 c 0.602,0 1.078,0.477 1.078,1.078 0,0.602 -0.476,1.082 -1.078,1.082 -0.601,0 -1.082,-0.48 -1.082,-1.062 0,-0.602 0.481,-1.098 1.082,-1.098 m -0.746,3.84 1.473,-0.231 v 9.008 h -1.473 V 8.336" /><path
         id="path68"
         style="fill:#004188;fill-opacity:1;fill-rule:nonzero;stroke:none"
         d="m 143.328,8.371 1.363,-0.266 v 6.336 c 0,0.864 0.106,1.184 0.512,1.45 0.285,0.195 0.707,0.336 1.098,0.336 0.867,0 1.769,-0.637 2.246,-1.594 V 8.391 l 1.363,-0.235 v 6.246 c 0,1.012 0.035,1.309 0.215,1.649 0.086,0.191 0.156,0.281 0.387,0.492 l -0.887,0.941 c -0.582,-0.48 -0.828,-0.832 -0.953,-1.418 -0.672,0.903 -1.594,1.344 -2.797,1.344 -1.113,0 -1.98,-0.457 -2.316,-1.254 -0.161,-0.336 -0.231,-0.797 -0.231,-1.308 V 8.371" /><path
         id="path70"
         style="fill:#004188;fill-opacity:1;fill-rule:nonzero;stroke:none"
         d="m 157.98,8.652 -0.515,1.028 c -0.777,-0.371 -1.434,-0.637 -2.211,-0.637 -1.008,0 -1.664,0.586 -1.664,1.453 0,0.316 0.09,0.582 0.25,0.777 0.191,0.247 0.496,0.391 1.023,0.493 l 1.168,0.25 c 1.594,0.355 2.356,1.148 2.356,2.461 0,1.714 -1.348,2.882 -3.328,2.882 -1.114,0 -2.336,-0.336 -3.239,-0.886 l 0.532,-1.024 c 0.902,0.547 1.824,0.832 2.796,0.832 1.079,0 1.79,-0.586 1.79,-1.523 0,-0.797 -0.446,-1.238 -1.454,-1.449 l -1.097,-0.231 c -0.797,-0.18 -1.254,-0.426 -1.664,-0.887 -0.371,-0.425 -0.567,-0.953 -0.567,-1.539 0,-1.593 1.293,-2.707 3.133,-2.707 0.922,0 1.945,0.285 2.691,0.707" /><path
         id="path72"
         style="fill:#004188;fill-opacity:1;fill-rule:nonzero;stroke:none"
         d="m 160.207,11.715 h 3.379 v 1.344 h -3.379 z" /><path
         id="path74"
         style="fill:#004188;fill-opacity:1;fill-rule:nonzero;stroke:none"
         d="m 166.773,4.973 h 2.122 l 2.21,7.925 c 0.231,0.852 0.321,1.188 0.481,2.125 0.195,-1.027 0.281,-1.363 0.441,-1.98 l 2.282,-8.07 h 2.144 l 1.043,12.14 h -1.453 l -0.707,-8.902 c -0.055,-0.777 -0.09,-2.07 -0.09,-2.07 -0.121,0.601 -0.332,1.433 -0.476,1.91 l -2.598,9.062 h -1.242 l -2.407,-8.617 c -0.246,-0.922 -0.421,-1.523 -0.601,-2.375 0,0 -0.086,1.613 -0.141,2.356 l -0.672,8.636 h -1.398 l 1.062,-12.14" /><path
         id="path76"
         style="fill:#004188;fill-opacity:1;fill-rule:nonzero;stroke:none"
         d="m 178.996,9.254 c 1.168,-0.777 2.426,-1.184 3.699,-1.184 1.219,0 2.071,0.477 2.442,1.379 0.16,0.391 0.195,0.692 0.195,1.504 v 0.445 l -0.07,2.899 c -0.016,0.125 -0.016,0.265 -0.016,0.406 0,1.082 0.156,1.469 0.723,1.754 l -0.707,0.992 c -0.602,-0.195 -1.043,-0.676 -1.203,-1.293 -0.848,0.848 -1.539,1.184 -2.551,1.184 -1.113,0 -1.66,-0.281 -2.121,-0.707 -0.496,-0.461 -0.707,-1.238 -0.707,-1.805 0,-1.996 1.715,-3.164 4.672,-3.164 0.21,0 0.316,0 0.617,0.016 v -0.621 c 0,-0.778 -0.035,-1.094 -0.281,-1.379 -0.286,-0.317 -0.637,-0.477 -1.184,-0.477 -0.516,0 -1.047,0.106 -1.699,0.387 -0.532,0.215 -0.711,0.336 -1.117,0.656 z m 4.938,3.383 c -0.301,-0.02 -0.442,-0.039 -0.688,-0.039 -1.348,0 -2.09,0.25 -2.531,0.711 -0.336,0.351 -0.496,0.796 -0.496,1.394 0,1.047 0.515,1.613 1.519,1.613 0.907,0 1.735,-0.55 2.145,-1.382 l 0.051,-2.297" /><path
         id="path78"
         style="fill:#004188;fill-opacity:1;fill-rule:nonzero;stroke:none"
         d="m 187.297,8.336 h 1.699 l 1.734,2.902 1.68,-2.902 h 1.61 l -2.602,3.891 3.379,4.886 h -1.68 l -2.387,-3.75 -2.39,3.75 h -1.629 l 3.293,-4.886 z" /><path
         id="path80"
         style="fill:#004188;fill-opacity:1;fill-rule:nonzero;stroke:none"
         d="m 196.871,4.496 c 0.598,0 1.078,0.477 1.078,1.078 0,0.602 -0.48,1.082 -1.078,1.082 -0.605,0 -1.082,-0.48 -1.082,-1.062 0,-0.602 0.477,-1.098 1.082,-1.098 m -0.746,3.84 1.469,-0.231 v 9.008 h -1.469 V 8.336" /><path
         id="path82"
         style="fill:#004188;fill-opacity:1;fill-rule:nonzero;stroke:none"
         d="m 200.246,8.406 1.348,-0.32 c 0.176,0.355 0.316,0.867 0.316,1.238 v 0.071 c 0.41,-0.422 0.582,-0.547 1.082,-0.848 0.563,-0.336 1.008,-0.477 1.485,-0.477 0.691,0 1.363,0.352 1.75,0.883 0.125,0.18 0.195,0.285 0.304,0.586 0.848,-0.902 1.926,-1.469 2.828,-1.469 1.309,0 2.215,0.989 2.215,2.391 v 6.652 h -1.418 v -6.511 c 0,-0.852 -0.39,-1.293 -1.133,-1.293 -0.425,0 -0.882,0.175 -1.293,0.476 -0.265,0.195 -0.566,0.445 -0.882,0.742 l -0.16,0.145 v 6.441 h -1.399 v -6.265 c 0,-0.762 -0.016,-0.883 -0.246,-1.133 -0.211,-0.246 -0.496,-0.352 -0.902,-0.352 -0.672,0 -1.329,0.336 -2.246,1.164 v 6.586 h -1.329 v -6.566 c 0,-1.223 -0.035,-1.414 -0.32,-2.141" /><path
         id="path84"
         style="fill:#004188;fill-opacity:1;fill-rule:nonzero;stroke:none"
         d="m 215.164,4.496 c 0.602,0 1.078,0.477 1.078,1.078 0,0.602 -0.476,1.082 -1.078,1.082 -0.602,0 -1.078,-0.48 -1.078,-1.062 0,-0.602 0.476,-1.098 1.078,-1.098 m -0.742,3.84 1.465,-0.231 v 9.008 h -1.465 V 8.336" /><path
         id="path86"
         style="fill:#004188;fill-opacity:1;fill-rule:nonzero;stroke:none"
         d="m 218.633,4.531 1.433,-0.281 c 0.227,0.672 0.211,1.66 0.211,2.723 v 8.371 c 0,0.687 0.106,0.883 0.496,0.883 0.051,0 0.176,-0.036 0.176,-0.036 l 0.281,0.903 c -0.351,0.16 -0.511,0.195 -0.882,0.195 -0.442,0 -0.782,-0.125 -1.043,-0.371 -0.321,-0.285 -0.426,-0.621 -0.426,-1.258 V 6.973 c 0,-1.328 -0.035,-1.825 -0.246,-2.442" /><path
         id="path88"
         style="fill:#004188;fill-opacity:1;fill-rule:nonzero;stroke:none"
         d="m 223.977,4.496 c 0.601,0 1.078,0.477 1.078,1.078 0,0.602 -0.477,1.082 -1.078,1.082 -0.602,0 -1.082,-0.48 -1.082,-1.062 0,-0.602 0.48,-1.098 1.082,-1.098 m -0.747,3.84 1.473,-0.231 v 9.008 H 223.23 V 8.336" /><path
         id="path90"
         style="fill:#004188;fill-opacity:1;fill-rule:nonzero;stroke:none"
         d="m 227.266,9.254 c 1.168,-0.777 2.425,-1.184 3.699,-1.184 1.219,0 2.07,0.477 2.441,1.379 0.16,0.391 0.196,0.692 0.196,1.504 v 0.445 l -0.071,2.899 c -0.019,0.125 -0.019,0.265 -0.019,0.406 0,1.082 0.16,1.469 0.726,1.754 l -0.707,0.992 c -0.601,-0.195 -1.047,-0.676 -1.203,-1.293 -0.851,0.848 -1.543,1.184 -2.551,1.184 -1.113,0 -1.66,-0.281 -2.121,-0.707 -0.496,-0.461 -0.707,-1.238 -0.707,-1.805 0,-1.996 1.715,-3.164 4.668,-3.164 0.215,0 0.321,0 0.621,0.016 v -0.621 c 0,-0.778 -0.035,-1.094 -0.285,-1.379 -0.281,-0.317 -0.637,-0.477 -1.183,-0.477 -0.516,0 -1.043,0.106 -1.7,0.387 -0.531,0.215 -0.707,0.336 -1.113,0.656 z m 4.937,3.383 c -0.301,-0.02 -0.441,-0.039 -0.691,-0.039 -1.344,0 -2.086,0.25 -2.528,0.711 -0.336,0.351 -0.5,0.796 -0.5,1.394 0,1.047 0.516,1.613 1.524,1.613 0.902,0 1.734,-0.55 2.14,-1.382 l 0.055,-2.297" /><path
         id="path92"
         style="fill:#004188;fill-opacity:1;fill-rule:nonzero;stroke:none"
         d="m 236.219,8.461 1.343,-0.375 c 0.231,0.496 0.321,0.867 0.321,1.383 0.918,-0.922 1.84,-1.364 2.777,-1.364 0.953,0 1.805,0.512 2.156,1.29 0.145,0.32 0.215,0.675 0.215,1.027 v 6.691 h -1.398 v -5.965 c 0,-0.937 -0.051,-1.183 -0.317,-1.468 -0.195,-0.231 -0.566,-0.371 -0.976,-0.371 -0.707,0 -1.805,0.566 -2.438,1.238 v 6.566 h -1.347 v -6.566 c 0,-1.223 -0.035,-1.414 -0.336,-2.086" /><path
         id="path94"
         style="fill:#004188;fill-opacity:1;fill-rule:nonzero;stroke:none"
         d="m 251.188,8.652 -0.512,1.028 c -0.781,-0.371 -1.434,-0.637 -2.215,-0.637 -1.008,0 -1.66,0.586 -1.66,1.453 0,0.316 0.09,0.582 0.246,0.777 0.195,0.247 0.496,0.391 1.027,0.493 l 1.168,0.25 c 1.594,0.355 2.352,1.148 2.352,2.461 0,1.714 -1.344,2.882 -3.324,2.882 -1.114,0 -2.336,-0.336 -3.239,-0.886 l 0.531,-1.024 c 0.903,0.547 1.821,0.832 2.793,0.832 1.083,0 1.79,-0.586 1.79,-1.523 0,-0.797 -0.442,-1.238 -1.454,-1.449 l -1.097,-0.231 c -0.793,-0.18 -1.254,-0.426 -1.66,-0.887 -0.372,-0.425 -0.567,-0.953 -0.567,-1.539 0,-1.593 1.289,-2.707 3.133,-2.707 0.918,0 1.945,0.285 2.688,0.707" /><path
         id="path96"
         style="fill:#004188;fill-opacity:1;fill-rule:nonzero;stroke:none"
         d="m 253.801,11.715 h 3.379 v 1.344 h -3.379 z" /></g></g></svg>